<svg width="40" height="40" fill="none" xmlns="http://www.w3.org/2000/svg"><path d="M25.917 21.667c1.25 0 2.35-.684 2.916-1.717L34.8 9.133a1.66 1.66 0 00-1.45-2.466H8.683L7.117 3.333h-5.45v3.334H5l6 12.65-2.25 4.066c-1.217 2.234.383 4.95 2.917 4.95h20V25h-20l1.833-3.333h12.417zM10.267 10h20.25l-4.6 8.333h-11.7L10.267 10zm1.4 20c-1.834 0-3.317 1.5-3.317 3.333 0 1.834 1.483 3.334 3.317 3.334 1.833 0 3.333-1.5 3.333-3.334C15 31.5 13.5 30 11.667 30zm16.666 0c-1.833 0-3.316 1.5-3.316 3.333 0 1.834 1.483 3.334 3.316 3.334 1.834 0 3.334-1.5 3.334-3.334 0-1.833-1.5-3.333-3.334-3.333z"/></svg>