<svg width="24" height="24" viewBox="0 0 24 24" fill="none" xmlns="http://www.w3.org/2000/svg">
  <path d="M11.986 12.341C9.16096 12.341 6.81296 9.995 6.81296 7.219C6.81296 4.347 9.16096 2 11.987 2C14.909 2 17.16 4.346 17.16 7.219C17.1549 8.58205 16.6089 9.88734 15.6419 10.848C14.6749 11.8086 13.366 12.346 12.003 12.342L11.986 12.341ZM11.986 5.017C10.79 5.017 9.87996 6.022 9.87996 7.22C9.87996 8.416 10.79 9.326 11.987 9.326C13.232 9.326 14.094 8.416 14.094 7.22C14.095 6.021 13.232 5.017 11.986 5.017ZM14.046 16.603L16.969 19.428C17.544 20.049 17.544 20.959 16.969 21.534C16.347 22.155 15.388 22.155 14.909 21.534L11.987 18.661L9.16096 21.534C8.87396 21.821 8.48996 21.964 8.05796 21.964C7.72296 21.964 7.33996 21.82 7.00396 21.534C6.42896 20.959 6.42896 20.049 7.00396 19.427L9.97396 16.602C8.9014 16.2844 7.8725 15.8346 6.91096 15.263C6.19196 14.88 6.04896 13.923 6.43196 13.204C6.91096 12.486 7.77296 12.295 8.53996 12.774C9.57856 13.4078 10.7717 13.7431 11.9885 13.7431C13.2052 13.7431 14.3984 13.4078 15.437 12.774C16.204 12.295 17.113 12.486 17.544 13.204C17.976 13.923 17.783 14.879 17.112 15.263C16.203 15.838 15.149 16.269 14.047 16.604L14.046 16.603Z"/>
</svg>
