<svg width="40" height="40" viewBox="0 0 40 40" fill="none" xmlns="http://www.w3.org/2000/svg">
  <path d="M25.9166 21.6667C27.1666 21.6667 28.2666 20.9834 28.8333 19.95L34.8 9.13337C34.9404 8.88075 35.0125 8.59583 35.009 8.3068C35.0056 8.01777 34.9267 7.73466 34.7802 7.48548C34.6337 7.23629 34.4247 7.02968 34.1739 6.88607C33.923 6.74247 33.639 6.66685 33.35 6.66671H8.68329L7.11663 3.33337H1.66663V6.66671H4.99996L11 19.3167L8.74996 23.3834C7.53329 25.6167 9.13329 28.3334 11.6666 28.3334H31.6666V25H11.6666L13.5 21.6667H25.9166ZM10.2666 10H30.5166L25.9166 18.3334H14.2166L10.2666 10ZM11.6666 30C9.83329 30 8.34996 31.5 8.34996 33.3334C8.34996 35.1667 9.83329 36.6667 11.6666 36.6667C13.5 36.6667 15 35.1667 15 33.3334C15 31.5 13.5 30 11.6666 30ZM28.3333 30C26.5 30 25.0166 31.5 25.0166 33.3334C25.0166 35.1667 26.5 36.6667 28.3333 36.6667C30.1666 36.6667 31.6666 35.1667 31.6666 33.3334C31.6666 31.5 30.1666 30 28.3333 30Z"/>
</svg>
