<svg version="1.0" xmlns="http://www.w3.org/2000/svg" width="562.667" height="562.667" viewBox="0 0 422 422"><path d="M204 123c-17.7 9-43 44.1-43 59.6 0 3.2.2 3.5 2.3 2.8 12.4-3.8 31.8-24.3 41.5-43.9 4.6-9.2 7.3-18.8 5.7-20.4-.6-.6-3.1.2-6.5 1.9zm-53.1 5.4c-3.8 8.7-5 24.2-2.8 36.2 1.2 6.5 3.6 12.4 5.1 12.4 1.6 0 4.5-8.1 5.8-16 2.1-12.6-.4-32.6-4.5-36-1.3-1.1-1.8-.5-3.6 3.4zm-35.1 37.1c-5.2 1.9-12.3 6.9-15.2 10.8-10 13.1-8.6 29.1 3 34.7 5.8 2.9 15.7 2.4 22.3-.9 6.5-3.4 13.7-10.6 16.7-16.9 2.2-4.6 2.5-6.6 2.2-12.2-.6-11.6-6.7-17.1-19-16.9-3.5 0-8 .7-10 1.4zm18.2 4c5.7 2.9 9 11.1 5.8 14.3-1.8 1.8-6.7 1.4-9.8-.8-9.2-6.6-5.7-18.5 4-13.5zm68.5 9.5c-16.5 3.3-34 10.7-39.9 16.9l-2.8 2.9 2.3 1.3c3.8 2 17.4 2.3 27.6.5 15.9-2.7 33-9.6 40.1-16.1 2.3-2 4.2-4.1 4.2-4.5 0-1.3-9.6-3-16.3-2.9-3.4 0-10.2.9-15.2 1.9zM152 194.7c-3.5 5.2-13.6 14.9-20.7 19.9-6.8 4.9-18.6 10.7-25.7 12.6-4.1 1.1-4.6 1.5-4.6 4 0 1.8.5 2.8 1.5 2.8 3.3 0 18.3-6.3 25.2-10.6 15.6-9.7 32.2-28.9 27.5-31.8-.4-.2-1.9 1.1-3.2 3.1zm22.9 14.3c-13.6 1.3-28.9 6-28.9 9 0 1.6 7.1 5.8 13.4 8 23.1 7.9 60.2 7.4 76.8-1.1 2.1-1.1 3.8-2.4 3.8-2.9 0-1.3-7.9-5.8-14.4-8-11.8-4.2-34.8-6.4-50.7-5zM136 226.2c0 2.7 5.8 10.4 11.1 15 5.5 4.6 14.6 9.8 17.3 9.8 5.2 0-9.5-17.2-18.9-22.2-6.9-3.6-9.5-4.3-9.5-2.6zM258 240v10h56c30.8 0 56-.3 56-.8 0-1 1.9-13.1 2.6-16.5l.6-2.7H258v10zm19.8-.3c-.1 4.4-.2 4.5-.5 1-.4-3.1-.8-3.7-2.8-3.7-2 0-2.4.6-2.8 3.7-.3 3.5-.4 3.4-.5-1l-.2-4.7h7l-.2 4.7zm11.3-3.7c3.9 2.2 1.3 8.9-3.1 7.7-1.5-.4-2 0-2 1.4 0 1-.4 1.9-1 1.9-.5 0-1-2.4-1-5.4 0-4.9.2-5.5 2.3-5.9 1.2-.2 2.3-.5 2.5-.6.2 0 1.2.4 2.3.9zm11.3.3c3.8 2.7-.2 9.5-4.1 7.1-2.5-1.6-2.9-5.5-.7-7.1 1-.7 2.1-1.3 2.4-1.3.3 0 1.4.6 2.4 1.3zm11.9-.6c.3.5.8 3 1.2 5.8.5 4.1.4 4.8-.6 3.7-.7-.6-2.5-1.2-4-1.2s-2.9.6-3.2 1.2c-.2.7-.8.9-1.3.5-.4-.4-.3-1.7.4-2.7.7-1.1 1.2-3 1.2-4.3 0-1.3.3-2.7.7-3 .9-.9 5.1-.9 5.6 0zm17.4 3.3c.4 0 1.5-.7 2.5-1.7 1-.9 1.8-1.1 1.8-.5 0 .6-.5 1.4-1.1 1.7-.7.5-.5 1.5.6 3.1 1.7 2.6.5 3.3-1.5.9-1.6-1.9-3-1.9-3 .1 0 .8-.4 1.2-1 .9-1.2-.7-1.4-6.8-.2-7.9.4-.4.8.2 1 1.3.2 1.2.6 2.1.9 2.1zm14.3-3c0 .5-.7 1-1.5 1-1.1 0-1.5 1.1-1.5 3.6 0 2.3-.4 3.3-1.1 2.8-.6-.3-.9-1.5-.6-2.5.3-1.1-.1-2.6-.9-3.3-2.1-2.2-1.7-2.6 2.1-2.6 1.9 0 3.5.4 3.5 1zm-24.9 2.7l1.1 2.8 1.5-2.8c2.4-4.7 2.6-2.3.2 3.2-1.5 3.5-2.7 5.1-4 5.1-1.1 0-1.9-.5-1.9-1 0-.6.7-1 1.5-1 1.9 0 1.9-1.1.1-5.5-.9-2-1.1-3.5-.5-3.5.5 0 1.4 1.2 2 2.7zm29.9-1.9c0 .4 1 1.2 2.3 1.7 1.2.6 2.2 1.9 2.2 3 0 1.5-.8 2.1-3.2 2.3-3.2.3-3.3.2-3.3-3.7 0-2.3.5-4.1 1-4.1.6 0 1 .3 1 .8zm8 3.2c0 2.2-.4 4-1 4-.5 0-1-1.8-1-4s.5-4 1-4c.6 0 1 1.8 1 4z"/><path d="M284.4 238.4c-.8 2.1.3 3.6 2.7 3.6 1.5 0 2-.6 1.7-2.2-.4-2.7-3.5-3.7-4.4-1.4zm11.4-.2c-.8 2.1.2 3.8 2.2 3.8 2.2 0 3.3-2.3 1.7-3.9-1.5-1.5-3.4-1.4-3.9.1zm12.2 1.3c0 1.6.6 2.5 1.5 2.5s1.5-.9 1.5-2.5-.6-2.5-1.5-2.5-1.5.9-1.5 2.5zm41 2.1c0 .9.5 1.4 1.2 1.2 1.8-.6 2.1-2.8.4-2.8-.9 0-1.6.7-1.6 1.6zm-274.7.4c-8.2 1.7-15.1 7.1-18.4 14.5-2.3 5-2.5 15.2-.3 20.3 3.8 9.1 13.6 15.2 24.5 15.2 11.5 0 19.6-4.3 24.4-13.2 5.4-9.8 3.2-23.7-4.9-30.5-6.5-5.5-16.7-8-25.3-6.3zm15.5 11.7c5.9 4.3 8 14.4 4.4 21.3-2.6 4.9-9.3 8.3-15.1 7.7-7.6-.8-13.1-6.6-13.9-14.6-.4-4.1 0-5.8 2.1-9.4 1.5-2.4 4.1-5.2 5.9-6.1 4.3-2.2 12.9-1.7 16.6 1.1zm114.3-9.5c-6.2 3.2-8.6 6.8-8.6 13 0 7.1 4 10.7 15.6 13.7 4.6 1.3 9.4 2.9 10.7 3.7 4.6 3 1.7 7.8-5.4 8.9-2.9.5-6 0-11.4-1.8-4.1-1.4-7.5-2.4-7.5-2.4 0 .1-.8 1.9-1.8 4l-1.7 3.8 4.7 2.1c3.4 1.6 7.4 2.3 13.8 2.6 7.9.3 9.5.1 13.4-2 6.2-3.2 8.6-6.8 8.6-12.9 0-7.2-3.6-10.4-15-13.5-9.8-2.6-13.5-4.6-13.5-7.3 0-5.1 8.5-7.3 17.3-4.3l5.8 1.9 1.4-2.8c.8-1.5 1.5-3.4 1.5-4.2 0-2.4-5.2-4-14.5-4.4-7.9-.4-9.5-.2-13.4 1.9zM241 268v23h9v-7.8c0-13.5 2-17.2 9.4-17.2 5.5 0 6.6 2.5 6.6 14.7V291h9v-11.5c0-13.3-1.3-17.5-5.9-19.9-3.8-2-11.7-2-15.5-.1-1.5.8-3 1.5-3.2 1.5-.2 0-.4-3.6-.4-8v-8h-9v23zm-109.5-10c-1.6.3-4 1.2-5.2 1.9-1.9 1-2.3.9-2.3-.4 0-1.1-1.1-1.5-4.5-1.5H115l.2 16.7.3 16.8 4-.1h4l.5-10.6c.6-12.4 1.9-14.8 8-14.8 6 0 7 1.9 7 14.2v10.6l4.6.4c2.5.2 4.7.1 5-.1.2-.2.4-5.4.4-11.5 0-8.6-.4-11.9-1.8-14.5-3-5.9-9-8.7-15.7-7.1zm36.8 0c-4.5 1-8.1 3.5-10.3 7.3-9.2 15 5 30.7 23.1 25.7 2-.6 4.3-1.8 5.2-2.8 1.6-1.7 1.5-2-.8-4.2-2.2-2.1-2.9-2.2-4.5-1.2-3.2 2-10.4 1.5-13.4-.9-5.3-4.1-3.7-4.9 10-4.9h12.7l-.5-4.9c-1-10.4-10.6-16.7-21.5-14.1zm10.7 9c4 4 2.7 5-6 5-6.4 0-8-.3-8-1.5 0-2.9 3.8-5.5 8-5.5 2.7 0 4.7.7 6 2zm110.9-6.8c-5.1 2.9-7.9 8.3-7.9 15 0 10.3 6.7 16.3 18 16.3 11.4-.1 17.1-5.2 17.8-16 .3-5 0-6.6-2-9.5-4-5.9-8.1-8-15.7-8-4.9 0-7.6.6-10.2 2.2zm15.4 6.8c6.9 5.4 3.3 17-5.2 17-8.5-.1-12.3-10-6.2-16.1 3.5-3.5 7.7-3.8 11.4-.9zm19.7 14v23h9v-15.8l3.8 2c7.5 3.9 18.5 0 21.8-7.8 3.3-8 .1-19.1-6.6-22.6-4.2-2.2-12-2.4-16-.3-2.7 1.4-3 1.4-3 0 0-1.1-1.1-1.5-4.5-1.5H325v23zm22.7-14.5c2.6 1.9 4.7 7.7 3.8 10.7-1.7 5.6-7.4 8.3-13 6.2-2.2-.9-4.5-5.7-4.5-9.4 0-6.7 8.4-11.2 13.7-7.5z"/></svg>