<?xml version="1.0" standalone="no"?>
<!DOCTYPE svg PUBLIC "-//W3C//DTD SVG 20010904//EN"
 "http://www.w3.org/TR/2001/REC-SVG-20010904/DTD/svg10.dtd">
<svg version="1.0" xmlns="http://www.w3.org/2000/svg"
 width="422.000000pt" height="422.000000pt" viewBox="0 0 422.000000 422.000000"
 preserveAspectRatio="xMidYMid meet">
<metadata>
Created by potrace 1.11, written by Peter Selinger 2001-2013
</metadata>
<g transform="translate(0.000000,422.000000) scale(0.100000,-0.100000)"
fill="#000000" stroke="none">
<path d="M2040 2990 c-177 -90 -430 -441 -430 -596 0 -32 2 -35 23 -28 124 38
318 243 415 439 46 92 73 188 57 204 -6 6 -31 -2 -65 -19z"/>
<path d="M1509 2936 c-38 -87 -50 -242 -28 -362 12 -65 36 -124 51 -124 16 0
45 81 58 160 21 126 -4 326 -45 360 -13 11 -18 5 -36 -34z"/>
<path d="M1158 2565 c-52 -19 -123 -69 -152 -108 -100 -131 -86 -291 30 -347
58 -29 157 -24 223 9 65 34 137 106 167 169 22 46 25 66 22 122 -6 116 -67
171 -190 169 -35 0 -80 -7 -100 -14z m182 -40 c57 -29 90 -111 58 -143 -18
-18 -67 -14 -98 8 -92 66 -57 185 40 135z"/>
<path d="M2025 2430 c-165 -33 -340 -107 -399 -169 l-28 -29 23 -13 c38 -20
174 -23 276 -5 159 27 330 96 401 161 23 20 42 41 42 45 0 13 -96 30 -163 29
-34 0 -102 -9 -152 -19z"/>
<path d="M1520 2273 c-35 -52 -136 -149 -207 -199 -68 -49 -186 -107 -257
-126 -41 -11 -46 -15 -46 -40 0 -18 5 -28 15 -28 33 0 183 63 252 106 156 97
322 289 275 318 -4 2 -19 -11 -32 -31z"/>
<path d="M1749 2130 c-136 -13 -289 -60 -289 -90 0 -16 71 -58 134 -80 231
-79 602 -74 768 11 21 11 38 24 38 29 0 13 -79 58 -144 80 -118 42 -348 64
-507 50z"/>
<path d="M1360 1958 c0 -27 58 -104 111 -150 55 -46 146 -98 173 -98 52 0 -95
172 -189 222 -69 36 -95 43 -95 26z"/>
<path d="M2580 1820 l0 -100 560 0 c308 0 560 3 560 8 0 10 19 131 26 165 l6
27 -576 0 -576 0 0 -100z m198 3 c-1 -44 -2 -45 -5 -10 -4 31 -8 37 -28 37
-20 0 -24 -6 -28 -37 -3 -35 -4 -34 -5 10 l-2 47 35 0 35 0 -2 -47z m113 37
c39 -22 13 -89 -31 -77 -15 4 -20 0 -20 -14 0 -10 -4 -19 -10 -19 -5 0 -10 24
-10 54 0 49 2 55 23 59 12 2 23 5 25 6 2 0 12 -4 23 -9z m113 -3 c38 -27 -2
-95 -41 -71 -25 16 -29 55 -7 71 10 7 21 13 24 13 3 0 14 -6 24 -13z m119 6
c3 -5 8 -30 12 -58 5 -41 4 -48 -6 -37 -7 6 -25 12 -40 12 -15 0 -29 -6 -32
-12 -2 -7 -8 -9 -13 -5 -4 4 -3 17 4 27 7 11 12 30 12 43 0 13 3 27 7 30 9 9
51 9 56 0z m174 -33 c4 0 15 7 25 17 10 9 18 11 18 5 0 -6 -5 -14 -11 -17 -7
-5 -5 -15 6 -31 17 -26 5 -33 -15 -9 -16 19 -30 19 -30 -1 0 -8 -4 -12 -10 -9
-12 7 -14 68 -2 79 4 4 8 -2 10 -13 2 -12 6 -21 9 -21z m143 30 c0 -5 -7 -10
-15 -10 -11 0 -15 -11 -15 -36 0 -23 -4 -33 -11 -28 -6 3 -9 15 -6 25 3 11 -1
26 -9 33 -21 22 -17 26 21 26 19 0 35 -4 35 -10z m-249 -27 l11 -28 15 28 c24
47 26 23 2 -32 -15 -35 -27 -51 -40 -51 -11 0 -19 5 -19 10 0 6 7 10 15 10 19
0 19 11 1 55 -9 20 -11 35 -5 35 5 0 14 -12 20 -27z m299 19 c0 -4 10 -12 23
-17 12 -6 22 -19 22 -30 0 -15 -8 -21 -32 -23 -32 -3 -33 -2 -33 37 0 23 5 41
10 41 6 0 10 -3 10 -8z m80 -32 c0 -22 -4 -40 -10 -40 -5 0 -10 18 -10 40 0
22 5 40 10 40 6 0 10 -18 10 -40z"/>
<path d="M2844 1836 c-8 -21 3 -36 27 -36 15 0 20 6 17 22 -4 27 -35 37 -44
14z"/>
<path d="M2958 1838 c-8 -21 2 -38 22 -38 22 0 33 23 17 39 -15 15 -34 14 -39
-1z"/>
<path d="M3080 1825 c0 -16 6 -25 15 -25 9 0 15 9 15 25 0 16 -6 25 -15 25 -9
0 -15 -9 -15 -25z"/>
<path d="M3490 1804 c0 -9 5 -14 12 -12 18 6 21 28 4 28 -9 0 -16 -7 -16 -16z"/>
<path d="M743 1800 c-82 -17 -151 -71 -184 -145 -23 -50 -25 -152 -3 -203 38
-91 136 -152 245 -152 115 0 196 43 244 132 54 98 32 237 -49 305 -65 55 -167
80 -253 63z m155 -117 c59 -43 80 -144 44 -213 -26 -49 -93 -83 -151 -77 -76
8 -131 66 -139 146 -4 41 0 58 21 94 15 24 41 52 59 61 43 22 129 17 166 -11z"/>
<path d="M2041 1778 c-62 -32 -86 -68 -86 -130 0 -71 40 -107 156 -137 46 -13
94 -29 107 -37 46 -30 17 -78 -54 -89 -29 -5 -60 0 -114 18 -41 14 -75 24 -75
24 0 -1 -8 -19 -18 -40 l-17 -38 47 -21 c34 -16 74 -23 138 -26 79 -3 95 -1
134 20 62 32 86 68 86 129 0 72 -36 104 -150 135 -98 26 -135 46 -135 73 0 51
85 73 173 43 l58 -19 14 28 c8 15 15 34 15 42 0 24 -52 40 -145 44 -79 4 -95
2 -134 -19z"/>
<path d="M2410 1540 l0 -230 45 0 45 0 0 78 c0 135 20 172 94 172 55 0 66 -25
66 -147 l0 -103 45 0 45 0 0 115 c0 133 -13 175 -59 199 -38 20 -117 20 -155
1 -15 -8 -30 -15 -32 -15 -2 0 -4 36 -4 80 l0 80 -45 0 -45 0 0 -230z"/>
<path d="M1315 1640 c-16 -3 -40 -12 -52 -19 -19 -10 -23 -9 -23 4 0 11 -11
15 -45 15 l-45 0 2 -167 3 -168 40 1 40 0 5 106 c6 124 19 148 80 148 60 0 70
-19 70 -142 l0 -106 46 -4 c25 -2 47 -1 50 1 2 2 4 54 4 115 0 86 -4 119 -18
145 -30 59 -90 87 -157 71z"/>
<path d="M1683 1640 c-45 -10 -81 -35 -103 -73 -92 -150 50 -307 231 -257 20
6 43 18 52 28 16 17 15 20 -8 42 -22 21 -29 22 -45 12 -32 -20 -104 -15 -134
9 -53 41 -37 49 100 49 l127 0 -5 49 c-10 104 -106 167 -215 141z m107 -90
c40 -40 27 -50 -60 -50 -64 0 -80 3 -80 15 0 29 38 55 80 55 27 0 47 -7 60
-20z"/>
<path d="M2899 1618 c-51 -29 -79 -83 -79 -150 0 -103 67 -163 180 -163 114 1
171 52 178 160 3 50 0 66 -20 95 -40 59 -81 80 -157 80 -49 0 -76 -6 -102 -22z
m154 -68 c69 -54 33 -170 -52 -170 -85 1 -123 100 -62 161 35 35 77 38 114 9z"/>
<path d="M3250 1410 l0 -230 45 0 45 0 0 79 0 79 38 -20 c75 -39 185 0 218 78
33 80 1 191 -66 226 -42 22 -120 24 -160 3 -27 -14 -30 -14 -30 0 0 11 -11 15
-45 15 l-45 0 0 -230z m227 145 c26 -19 47 -77 38 -107 -17 -56 -74 -83 -130
-62 -22 9 -45 57 -45 94 0 67 84 112 137 75z"/>
</g>
</svg>
